<svg xmlns="http://www.w3.org/2000/svg" viewBox="0 0 284.99 284.99"><defs><style>.cls-1{fill:#f18c98;}.cls-2{fill:#fddbb3;}.cls-3{fill:#d5363d;}.cls-4{fill:#e94e1b;}</style></defs><title>Fichier 2</title><g id="Calque_2" data-name="Calque 2"><g id="Calque_1-2" data-name="Calque 1"><circle class="cls-1" cx="142.49" cy="142.49" r="142.49"/><path class="cls-2" d="M144,185.14c-1.21,0-2.12,0-3,0a7.87,7.87,0,0,1-1.28-.17c-1.62-.22-3.26-.29-4.88-.49-1.35-.17-2.72-.28-4.07-.48s-2.43-.3-3.64-.45a31.52,31.52,0,0,0-4-.5,18,18,0,0,1-1.88-.32c-1.17-.13-2.34-.32-3.51-.49s-2.43-.35-3.65-.51-2.34-.29-3.51-.46-2.48-.38-3.71-.58a56.32,56.32,0,0,1-6.47-1.37,17.52,17.52,0,0,1-7-3.47,39.85,39.85,0,0,1-3.24-3.52c-1.59-1.8-3-3.75-4.39-5.69s-2.71-3.9-3.91-6c-.79-1.34-1.57-2.69-2.25-4.09a74.54,74.54,0,0,1-3.86-9.81Q73.51,140,71.89,133c-.59-2.53-1.07-5.08-1.6-7.62-.35-1.7-.44-3.43-.89-5.1a11,11,0,0,1-.15-1.63c-.13-1.11-.32-2.21-.4-3.32-.07-.88-.14-1.76-.19-2.65-.14-2.33-.19-4.66-.1-7a25.22,25.22,0,0,1,.35-4.41,12.13,12.13,0,0,0,.15-1.49c.15-1.57.43-3.11.68-4.66a70.16,70.16,0,0,1,1.52-6.87,84.46,84.46,0,0,1,3.15-9.41,88.93,88.93,0,0,1,4.21-9.08c.94-1.77,2-3.49,3.07-5.18a72.16,72.16,0,0,1,4.49-6.22,48.92,48.92,0,0,1,3.28-3.77c.39-.38.73-.82,1.11-1.21a79.36,79.36,0,0,1,9.53-8.12c1.88-1.37,3.7-2.82,5.6-4.16,1.27-.89,2.52-1.81,3.8-2.69,2.12-1.45,4.22-2.9,6.37-4.28,3.21-2.07,6.41-4.13,9.69-6.08.63-.37,1.26-.75,1.87-1.15a6.32,6.32,0,0,1,3.43-1,17.37,17.37,0,0,1,1.77-.16c.24,0,.5-.06.63.27s.31.15.49.15a21.3,21.3,0,0,1,2.26,0A9,9,0,0,0,138.5,26a4.07,4.07,0,0,1,1.9.06c.15,0,.32,0,.37.24.1.37.38.35.66.32a25.72,25.72,0,0,1,5.19,0c.79.07,1.59.13,2.38.18s1.58.07,2.37.21,1.36,0,2,.17c1.2.22,2.42.37,3.62.62,1,.2,1.94.3,2.89.5A84.48,84.48,0,0,1,171,31a28.9,28.9,0,0,1,8.59,4.62A45.85,45.85,0,0,1,185,40.27c1.35,1.45,2.76,2.85,4,4.38.89,1.07,1.87,2.07,2.79,3.11,1.11,1.27,2.21,2.56,3.31,3.83.68.78,1.36,1.54,2,2.32,1.19,1.41,2.37,2.83,3.58,4.23s2.43,3,3.59,4.49c1.29,1.69,2.51,3.42,3.66,5.21a62.34,62.34,0,0,1,3.75,6.85,50.46,50.46,0,0,1,3.86,10.81,30.4,30.4,0,0,1,.51,3c.13,1,.25,2,.32,3a14.62,14.62,0,0,1-.06,3.62,5.07,5.07,0,0,0,0,.55,25.39,25.39,0,0,1-.51,4.68c-.12.5-.07,1-.15,1.56a75.26,75.26,0,0,1-1.77,8.28,55,55,0,0,1-2.55,7.38c-.57,1.34-1.21,2.66-1.83,4a76.19,76.19,0,0,1-5.83,10.15c-.88,1.31-1.88,2.53-2.86,3.76-.76.94-1.51,1.89-2.29,2.8s-1.7,1.92-2.55,2.87c-1.6,1.78-3.2,3.57-4.82,5.33-.63.7-1.28,1.37-1.9,2.07-1,1.11-2,2.19-3,3.29-1.52,1.7-3.05,3.4-4.56,5.1s-2.94,3.31-4.35,5c-1.16,1.39-2.35,2.74-3.52,4.11s-2.41,2.86-3.63,4.28c-.44.52-.91,1-1.37,1.53-1.41,1.6-2.9,3.12-4.45,4.57a36.39,36.39,0,0,1-9.24,6.55,22.15,22.15,0,0,1-5.25,1.73A24.37,24.37,0,0,1,144,185.14Z"/><path class="cls-3" d="M275.83,125.7c-.08-1-.15-2-.28-3a36.28,36.28,0,0,0-1.59-7.21c0-.15-.15-.33-.11-.46.14-.4-.08-.71-.22-1-.39-.89-.85-1.76-1.19-2.68a65,65,0,0,0-3.57-8,11.63,11.63,0,0,0-2.47-3.19,2.2,2.2,0,0,0-1.4-.64c-.86,0-1.72-.14-2.58-.22a3.28,3.28,0,0,0-2.27.6c-1.18.79-2.36,1.56-3.55,2.34a14.16,14.16,0,0,1-1.77,1.16,64.11,64.11,0,0,0-8.07,4.38c-4.36,2.79-8.47,5.93-12.63,9A111.13,111.13,0,0,1,224.9,123a30.31,30.31,0,0,1-5.86,2.8c-.62.21-1.25.45-1.87,0-.1-.08-.26-.06-.39-.11a23.14,23.14,0,0,0-3.58-.71,15.71,15.71,0,0,0-3.13-.28c-1.83,0-3.66.11-5.48.24-2.12.15-4.23.33-6.34.58-1.67.2-3.34.49-5,.8a7.69,7.69,0,0,0-5.11,3.53c-.41.63-.81,1.27-1.18,1.93-1.65,3-3.28,6-5.12,8.92-1.07,1.68-2.13,3.37-3.11,5.1q-4.16,7.4-9,14.37a17.21,17.21,0,0,1-3.45,4.06,47.78,47.78,0,0,1-6.8,4.25,1.48,1.48,0,0,1-.59.16c-.73,0-1.46.08-2.19.09-1.5,0-3,0-4.52,0a14.27,14.27,0,0,1-3.32-.38c-3.36-.72-6.61-1.82-9.87-2.86A88.74,88.74,0,0,0,125.5,162a23.39,23.39,0,0,0-3.13-.33,9.23,9.23,0,0,0-3.92,1.1,2.94,2.94,0,0,1-1.31.31,4.63,4.63,0,0,0-1.47.25,26.4,26.4,0,0,0-4.63,2,90.17,90.17,0,0,0-8.61,5.75,23.89,23.89,0,0,1-2.17,1.43c-1.79,1-3.61,2-5.41,3-1.06.59-2.11,1.19-3.16,1.79-.23.13-.44.28-.69.06a2.93,2.93,0,0,0-1.71-.6c-1.65-.23-3.31-.4-4.93-.75-3.15-.68-6.26-1.49-9.4-2.2-1.94-.43-3.89-.79-5.84-1.17-.89-.17-1.81-.24-2.69-.45-1.49-.35-3-.81-4.44-1.17s-2.87-1-4.39-1.25c0,0-.1,0-.12,0-.33-.46-.85-.42-1.3-.5a39.22,39.22,0,0,0-5.72-.51,19.24,19.24,0,0,1-3.47-.33,3.69,3.69,0,0,0-.46-.08c0,.86,0,1.72,0,2.58.05,4.23,0,8.47,0,12.7a11.92,11.92,0,0,0,.11,1.89,51.39,51.39,0,0,1,.44,7.54c0,2.89.42,5.74.68,8.6.25,2.68.91,5.31.84,8a50.89,50.89,0,0,1,.44,5.38,34.3,34.3,0,0,0,.64,4.53c.32,1.41.29,2.85.72,4.25a42,42,0,0,1,.83,4.22c.14.7.33,1.4.52,2.09a97.78,97.78,0,0,1,2.38,10.76c.07.44.14.89.22,1.34,1.69,1.53,3.38,3.07,5.11,4.57a104.59,104.59,0,0,0,10.31,7.94,96,96,0,0,0,13.95,7.92q5.73,2.58,11.53,5c1.5.63,3,1.15,4.6,1.65s2.92.93,4.41,1.26c3,.68,6.11,1.33,9.19,1.9a64.36,64.36,0,0,0,8.43.84c1.42.07,2.83.11,4.25.19,1.82.11,3.64.27,5.47.35s3.51.09,5.27.15c1.24,0,2.47.12,3.7.15,1.62.05,3.25.11,4.87.08,2.9-.07,5.8-.21,8.7-.33,1.05,0,2.1-.07,3.14-.17s1.85-.24,2.77-.38c2.79-.41,5.6-.75,8.38-1.25a121.61,121.61,0,0,0,31.77-10.36,113.19,113.19,0,0,0,14.41-8.49,111.55,111.55,0,0,0,14.13-11.52c1.67-1.62,3.26-3.34,4.84-5a86.26,86.26,0,0,0,10.05-13.18,15.51,15.51,0,0,1,1.12-1.73,103.87,103.87,0,0,0,9.47-14.12c1.08-1.88,2.14-3.78,3.36-5.58a88.15,88.15,0,0,0,10-19.29,24.15,24.15,0,0,1,1-2.49,55.79,55.79,0,0,0,2.4-5.28,36,36,0,0,0,1.57-4.95c.45-2.07.86-4.15,1.18-6.25.37-2.34.62-4.69.91-7,.08-.71.1-1.41.14-2.12.12-1.78.25-3.55.36-5.33.08-1.27.1-2.56.19-3.83s.27-2.68.35-4c.13-2,.25-4.06.28-6.09C276,132.19,276.11,128.94,275.83,125.7ZM152.08,255.05l-.84.58a.1.1,0,0,1-.09.07l-.1.07,0-.14a.08.08,0,0,1,.07-.09c.32-.31.63-.63,1-1C152.28,254.79,152.26,254.93,152.08,255.05Zm56.64-30.57-.21-.09.77-1.81.15.06A9.33,9.33,0,0,1,208.72,224.48Z"/><path class="cls-3" d="M43.5,223.3c-.11-.89-.2-1.78-.28-2.68-.06-.62,0-1.27-.13-1.88-.55-2.86-.28-5.74-.35-8.62,0-2-.06-4-.09-5.94a5.55,5.55,0,0,0-.08-1.08,26.89,26.89,0,0,1-.35-5.38c0-5.14,0-10.27,0-15.41a12.09,12.09,0,0,1,.05-1.35,102.25,102.25,0,0,0,.46-10.79c0-.81.08-1.62.14-2.43l-.1,0c-1.76-.35-3.52-.77-5.28-1.13a4.86,4.86,0,0,0-1.9-.06l-.1.41-3.65-.13a2.25,2.25,0,0,0-1.79.71,11.81,11.81,0,0,0-1,1.19,74.38,74.38,0,0,0-6.23,9.92,33.05,33.05,0,0,1-3.56,5.61c-.19.23-.34.48-.51.73a5,5,0,0,0-.86,3.18,10.59,10.59,0,0,0,.23,1.48,20.46,20.46,0,0,0,1.93,5.69c.3.56.56,1.15.84,1.73,1.08,2.22,2.12,4.46,3.26,6.65,1.37,2.64,2.85,5.22,4.25,7.83a36.91,36.91,0,0,0,4.14,6.14,7.78,7.78,0,0,1,.82,1,61.35,61.35,0,0,0,4,5.72,59.83,59.83,0,0,0,7.85,8.22,26.53,26.53,0,0,1-.56-2.68C44.34,227.72,43.78,225.54,43.5,223.3Z"/><path class="cls-4" d="M154.69,75.29a8.92,8.92,0,0,0-1.72-3,19.48,19.48,0,0,0-4.74-3.57c-1-.52-2-.91-3-1.38a15,15,0,0,0-4.32-1.47c-2.51-.34-5-1.07-7.5-1.19a1.64,1.64,0,0,1-.5-.09,12.39,12.39,0,0,0-4-.47c-1,0-2-.15-3-.23a20.36,20.36,0,0,0-4.55,0,3.35,3.35,0,0,1-1,0c-3.22-.45-6.4.07-9.58.48-2,.25-4,.78-6,1a3.8,3.8,0,0,0-.75.13c-1.22.35-2.47.62-3.65,1.08-2.86,1.1-5.88,1.63-8.66,3-.41.2-1.08.59-1.4.12s.29-.92.58-1.31a10.06,10.06,0,0,1,.91-.94c3-3,6.09-6,8.82-9.28s5.37-6.23,7.89-9.5c.75-1,1.41-2,2.21-3a41.48,41.48,0,0,0,4.09-6.49,13.18,13.18,0,0,0,.92-2.51,6.35,6.35,0,0,0,.07-3.21A3.86,3.86,0,0,0,112,30.11a13.19,13.19,0,0,0-8.14,2.44,29.15,29.15,0,0,0-6.6,6.61,56.6,56.6,0,0,0-4.84,7.9c-1.91,3.61-3.87,7.18-5.81,10.77-.55,1-1.16,2-1.68,3-1.21,2.37-2.38,4.76-3.56,7.15a4.72,4.72,0,0,1-1.27,1.66c-.15.13-.61,0-.67-.15a4.11,4.11,0,0,1-.28-1q-.16-3.78-.27-7.56c0-1.9,0-3.79-.07-5.68s-.21-3.6-.21-5.4a68.88,68.88,0,0,0-1-9.93,43.88,43.88,0,0,1-.84-6.68A8.29,8.29,0,0,0,75.4,29,1.85,1.85,0,0,0,73,28.07a3,3,0,0,0-.91.47,12.77,12.77,0,0,0-3.57,3.78,27,27,0,0,0-2.42,5.33c-.22.68-.36,1.4-.64,2.05a22.46,22.46,0,0,0-1.62,6.22c-.19,1.69-.48,3.38-.71,5.07a4.37,4.37,0,0,0,0,1.35c.2,1,.13,2.13.36,3.2s.38,2.1.54,3.15a12.64,12.64,0,0,0,2.36,6.13A6.2,6.2,0,0,1,67.62,68a8.32,8.32,0,0,0,.5,1.8c.35,1,.73,2,1.12,3,.66,1.66,1,3.44,1.79,5a1,1,0,0,1-.71,1.45,61.81,61.81,0,0,0-7,2.37,21,21,0,0,0-3.92,1.86c-2.82,1.62-5.6,3.34-8.39,5-.58.35-1.16.73-1.73,1.12-2.33,1.62-4.65,3.26-7,4.87a26,26,0,0,0-5.67,5.37,28.38,28.38,0,0,0-3.74,5.42,7.24,7.24,0,0,1-.77,1.07,45,45,0,0,0-3.59,5.88c-.4.79-.7,1.64-1.05,2.46a3.08,3.08,0,0,0,.87,3.85,1.65,1.65,0,0,0,1.15.46,4,4,0,0,0,1.24-.15,12.67,12.67,0,0,0,2.1-.93q3.1-1.8,6.17-3.68a53.84,53.84,0,0,0,5-3.6c2.66-2.07,5.33-4.13,8-6.24a40,40,0,0,0,3.24-2.56c1.23-1.23,2.58-2.32,3.81-3.55a52.91,52.91,0,0,1,8.72-6.44.47.47,0,0,1,.24,0c.08,0,.2,0,.24,0a.9.9,0,0,1,.25.44,3.21,3.21,0,0,1-.67,1.72c-1.37,2.27-2.24,4.83-3.69,7.07-1,1.54-1.74,3.29-2.65,4.91a30,30,0,0,0-2.28,5.11l.06-.08a7.22,7.22,0,0,0-.78,1.06c-1.09,2.13-2.59,4-3.45,6.29a10.21,10.21,0,0,1-.64,1.16l-3.13,6.17a38.36,38.36,0,0,0-2,5.82c-1.51,4.68-2.94,9.4-4.08,14.2-.21.87-.43,1.74-.58,2.62-.44,2.57-.8,5.14-1,7.75-.23,2.79-.42,5.57-.5,8.36,0,.72-.11,1.44-.15,2.16,0,.35-.05.71-.08,1.07-.06.81-.11,1.62-.14,2.43A102.25,102.25,0,0,1,42.31,181a12.09,12.09,0,0,0-.05,1.35c0,5.14,0,10.27,0,15.41a26.89,26.89,0,0,0,.35,5.38,5.55,5.55,0,0,1,.08,1.08c0,2,.05,4,.09,5.94.07,2.88-.2,5.76.35,8.62.12.61.07,1.26.13,1.88.08.9.17,1.79.28,2.68.28,2.24.84,4.42,1.18,6.63a26.53,26.53,0,0,0,.56,2.68l.26.22a2.55,2.55,0,0,1,.43.44,47.24,47.24,0,0,0,6.57,7.27l1.87,1.71c-.08-.45-.15-.9-.22-1.34a97.78,97.78,0,0,0-2.38-10.76c-.19-.69-.38-1.39-.52-2.09a42,42,0,0,0-.83-4.22c-.43-1.4-.4-2.84-.72-4.25a34.3,34.3,0,0,1-.64-4.53,50.89,50.89,0,0,0-.44-5.38c.07-2.72-.59-5.35-.84-8-.26-2.86-.65-5.71-.68-8.6a51.39,51.39,0,0,0-.44-7.54,11.92,11.92,0,0,1-.11-1.89c0-4.23,0-8.47,0-12.7,0-.86,0-1.72,0-2.58.07-3.46.35-6.91.45-10.37a72.69,72.69,0,0,1,.94-8.3A69.37,69.37,0,0,1,50,140.76c1.09-3.87,2.26-7.72,3.38-11.59a24.47,24.47,0,0,1,1.35-3.49l2.94-6.28c.69-1.44,1.3-2.94,2.11-4.31a56.69,56.69,0,0,0,2.83-5.41A58.68,58.68,0,0,1,65.44,104a6.3,6.3,0,0,0,1.06-3,1.42,1.42,0,0,1,.66-1.08,1,1,0,0,0,.29-.69c0-.37,0-.74.32-1a2.86,2.86,0,0,0,1.14-1.39c.8-1.79,1.67-3.54,2.47-5.33a5.1,5.1,0,0,1,1.14-1.75,1,1,0,0,1,.67-.25c.28,0,.39.32.37.6-.06.8-.09,1.62-.23,2.41-.72,4.06-1.34,8.15-2.31,12.17-.17.7-.29,1.4-.45,2.11A25.63,25.63,0,0,0,70,113.5a151.57,151.57,0,0,1-.42,15.66c0,.44-.16.88-.23,1.32s-.19,1.06-.25,1.59c-.13,1.17-.21,2.34-.35,3.5a28.24,28.24,0,0,0,.62,8.3,9.21,9.21,0,0,0,.31,1,24.16,24.16,0,0,1,.86,3.1,17.89,17.89,0,0,0,.82,3.1,8.81,8.81,0,0,1,.52,1.52,15.7,15.7,0,0,0,1.62,4.23,4.34,4.34,0,0,0,2.1,2.22,6,6,0,0,1,1.5,1,4.57,4.57,0,0,0,3.81,1,3.83,3.83,0,0,0,3.26-1.78,7.43,7.43,0,0,1,1.2-1.38,3.62,3.62,0,0,0,.8-1.35,18.18,18.18,0,0,0,.88-3.93c.35-2.49.55-5,.81-7.51.14-1.35,0-2.68.07-4-.47-3.22-.23-6.47-.41-9.71-.06-1.25.09-2.52,0-3.78-.2-4.86,0-9.72,0-14.58,0-3.15.06-6.3.08-9.45,0-2.89.05-5.77.09-8.66a4,4,0,0,1,.24-1.3c.06-.18.38-.33.6-.35a1.49,1.49,0,0,1,.73.16c1.48.65,2.95,1.33,4.44,2,2,.86,4.08,1.7,6.13,2.53a5.54,5.54,0,0,1,2,1.19c1,1,2.1,1.79,3.14,2.7a23.85,23.85,0,0,0,4.57,3.33c1.2.65,2.33,1.45,3.5,2.17,3.31,2,7,3.1,10.53,4.54a28.83,28.83,0,0,1,2.8,1.21c.45.25.94.41,1.4.64,3.53,1.71,7.24,2.9,10.87,4.36a33.21,33.21,0,0,0,3.38,1.08,5,5,0,0,0,2,.22,6.49,6.49,0,0,1,1.76,0,4.29,4.29,0,0,0,4.1-1.47,3,3,0,0,0,.83-1.62,8.35,8.35,0,0,0,0-2.91,8.68,8.68,0,0,0-1.31-3.19,63,63,0,0,0-5-6.75,69.88,69.88,0,0,0-5.19-5.14,17.4,17.4,0,0,0-2.86-2.22c-1.69-1-3.36-2-5.07-3-1.11-.64-2.27-1.18-3.4-1.78a49.7,49.7,0,0,0-7-3.15c-1.27-.45-2.57-.87-3.85-1.32a7.64,7.64,0,0,1-1.12-.61.37.37,0,0,1-.09-.22.28.28,0,0,1,.27-.36,8.44,8.44,0,0,1,1-.09,31,31,0,0,0,6.3-.57,3,3,0,0,1,1-.05c2.19.24,4.38-.3,6.57-.09a4.94,4.94,0,0,0,.75-.09l8.33-.55a6.14,6.14,0,0,0,2.76-.16c.5-.07,1-.11,1.51-.16,2-.17,4-.33,6.05-.54.75-.08,1.48-.33,2.23-.45a4.06,4.06,0,0,0,2.19-1.28,2.66,2.66,0,0,0,.77-1.65A9.52,9.52,0,0,0,154.69,75.29ZM103.91,51.65l-.09.06h-.07ZM65.1,85.11a3.26,3.26,0,0,1-.36.29L63,85.46h0a1.19,1.19,0,0,1-.85,1.43,14.68,14.68,0,0,1-2.27.9.79.79,0,0,0,0,.09h-.08l0,.16c-.15-.08-.13-.13,0-.16l0-.08.1,0A1.86,1.86,0,0,1,60.7,87c.77-.51,1.55-1,2.33-1.48h0l1.69-.07c0-.15,0-.33,0-.46s.21-.12.33-.16.1.09.11.14A.27.27,0,0,1,65.1,85.11Zm2-.77-.19,0a.61.61,0,0,0-.14,0l.3,0L67,84.14l.11.13h0ZM46.77,201l-.45-1.06A.77.77,0,0,1,46.77,201Z"/><path class="cls-2" d="M124.19,185.17l1.16,35.16,0,10.25q0,5,0,7.27c0,.31,0,.62-.08.93a.64.64,0,0,1-.58.59h-1c-2.33,0-5.82-.13-10.47-.37q-5.8-.31-9.19-.36h0s-15.91-.26-20.91-1,.18,14.59.18,14.59h20.17l.16,0a11.45,11.45,0,0,0,1.46,0q3.34,0,8.7-.15l8.71-.2,11.61-.15c1.17,0,2.84,0,5-.16.76-.13,1.13-.53,1.13-1.2q0-4.23-.14-12.69T140,225q0-4.5.27-13.5.26-8.62.27-13.12h0V185.17Z"/><path class="cls-2" d="M204.44,185.17H192v12.18a.94.94,0,0,0-.18.69c0,1.06.08,2.66.23,4.8s.21,3.56.22,4.61c0,.64-.88,2.21-2.64,4.74-1.34,1.9-2.45,3.37-3.33,4.44-.88-1.07-2-2.54-3.33-4.44-1.76-2.53-2.64-4.1-2.64-4.74,0-1,.08-2.59.22-4.61s.22-3.74.22-4.8a.94.94,0,0,0-.18-.69V185.17H168.18V198c0,.88,0,2.09.09,3.59,0,.55,0,1.13,0,1.77,0,2.25-.06,3.94-.06,5.08a5.52,5.52,0,0,0,.48,2.38A104.5,104.5,0,0,0,179.37,228a4.21,4.21,0,0,1,1,2.39c0,1.13-.1,2.75-.27,4.88-.18,2.28-.27,4-.27,5.11a.85.85,0,0,0,.84.91,47.13,47.13,0,0,0,5.56.19h.24a46.91,46.91,0,0,0,5.55-.19.85.85,0,0,0,.84-.91c0-1.12-.09-2.83-.27-5.11-.17-2.13-.25-3.75-.27-4.88a4.36,4.36,0,0,1,1-2.39A103.93,103.93,0,0,0,204,210.8a5.52,5.52,0,0,0,.48-2.38c0-1.14,0-2.83-.06-5.08,0-.64,0-1.22,0-1.77.06-1.5.09-2.71.09-3.59Z"/><path class="cls-2" d="M192.75,238.31c-5.66.23-11.4.32-11.4.32h0q-3.39,0-9.19.36c-4.65.24-8.14.37-10.47.37h-1a.65.65,0,0,1-.58-.59c0-.31-.05-.62-.08-.93,0-1.53,0-3.95,0-7.27l0-10.25,1.16-35.16H144.86v13.24h0q0,4.49.27,13.12.27,9,.27,13.5,0,4.23-.13,12.68t-.14,12.69c0,.67.38,1.07,1.13,1.2,2.17.13,3.85.18,5,.16l11.62.15,8.7.2q5.35.15,8.7.15a11.45,11.45,0,0,0,1.46,0l.16,0h10.63C192.56,248.28,192.61,243.6,192.75,238.31Z"/><path class="cls-2" d="M119.3,208.3A22.58,22.58,0,0,1,114,223.53a18,18,0,0,1-27.32-.06,24.37,24.37,0,0,1,0-30.4,17.86,17.86,0,0,1,27.26,0A22.55,22.55,0,0,1,119.3,208.3Zm-10.08-.06a11.63,11.63,0,0,0-2.42-7.43,7.93,7.93,0,0,0-12.82.12,12.39,12.39,0,0,0-.16,14.79,8.09,8.09,0,0,0,12.9-.17A11.46,11.46,0,0,0,109.22,208.24Z"/><path class="cls-2" d="M185.16,198.79c-1.83-1-1.63-3.65-1.13-5.66a119.3,119.3,0,0,1,7.67-21.57,61.09,61.09,0,0,0,11.39,3.38,2.06,2.06,0,0,1,1.18.52c.28.33.21,1-.21,1.07a.92.92,0,0,1-.37,0c-5.31-.87-11.83-4.05-13.91,2.22S187.09,192.29,185.16,198.79Z"/></g></g></svg>
